<svg width="104" height="33" viewBox="0 0 104 33" fill="none" xmlns="http://www.w3.org/2000/svg">
<path d="M11.0423 29.4643C12.329 29.4643 13.4213 29.2527 14.319 28.8297C15.2467 28.3764 15.9948 27.7871 16.5634 27.0618C17.1619 26.3063 17.5958 25.4602 17.8651 24.5234C18.1644 23.5563 18.314 22.544 18.314 21.4863V20.9423H22.0845V21.4863C22.0845 23.0879 21.8451 24.5989 21.3664 26.0192C20.8876 27.4093 20.1843 28.6332 19.2566 29.6909C18.329 30.7184 17.1769 31.5343 15.8003 32.1387C14.4238 32.7129 12.8378 33 11.0423 33C7.57099 33 4.86279 31.897 2.91767 29.6909C0.972558 27.4849 0 24.2665 0 20.0357V12.9643C0 8.8544 0.972558 5.66621 2.91767 3.39972C4.86279 1.13324 7.57099 0 11.0423 0C12.8378 0 14.4238 0.302198 15.8003 0.906595C17.1769 1.48077 18.329 2.2967 19.2566 3.3544C20.1843 4.38187 20.8876 5.60577 21.3664 7.0261C21.8451 8.41621 22.0845 9.91209 22.0845 11.5137V12.0577H18.314V11.5137C18.2841 10.4863 18.1195 9.48901 17.8203 8.52198C17.5509 7.55495 17.117 6.70879 16.5185 5.98352C15.95 5.22802 15.2168 4.63874 14.319 4.21566C13.4213 3.76236 12.329 3.53571 11.0423 3.53571C8.61836 3.53571 6.79294 4.4272 5.56602 6.21017C4.36903 7.99313 3.77053 10.3352 3.77053 13.2363V19.7637C3.77053 22.8764 4.36903 25.2788 5.56602 26.9712C6.79294 28.6332 8.61836 29.4643 11.0423 29.4643Z" fill="#13192A"/>
<path d="M49.5244 21.3956C49.5244 23.2692 49.2101 24.9313 48.5817 26.3819C47.9832 27.8022 47.1753 29.011 46.1578 30.0082C45.1404 30.9753 43.9434 31.7157 42.5668 32.2294C41.2202 32.7431 39.8137 33 38.3474 33C36.8512 33 35.4297 32.7431 34.0831 32.2294C32.7365 31.7157 31.5545 30.9753 30.537 30.0082C29.5196 29.011 28.6967 27.8022 28.0682 26.3819C27.4697 24.9313 27.1705 23.2692 27.1705 21.3956V20.8516C27.1705 19.0082 27.4697 17.3764 28.0682 15.956C28.6967 14.5055 29.5196 13.2816 30.537 12.2843C31.5844 11.2871 32.7814 10.5316 34.128 10.0179C35.4746 9.50412 36.8811 9.24725 38.3474 9.24725C39.8137 9.24725 41.2202 9.50412 42.5668 10.0179C43.9134 10.5316 45.0955 11.2871 46.1129 12.2843C47.1603 13.2816 47.9832 14.5055 48.5817 15.956C49.2101 17.3764 49.5244 19.0082 49.5244 20.8516V21.3956ZM38.3474 29.6456C39.4247 29.6456 40.4122 29.4643 41.31 29.1016C42.2377 28.7088 43.0456 28.1497 43.7339 27.4244C44.4222 26.6992 44.9608 25.8379 45.3498 24.8407C45.7389 23.8132 45.9334 22.6648 45.9334 21.3956V20.8516C45.9334 19.6429 45.7389 18.5398 45.3498 17.5426C44.9608 16.5151 44.4222 15.6387 43.7339 14.9135C43.0456 14.1882 42.2377 13.6291 41.31 13.2363C40.3823 12.8132 39.3948 12.6016 38.3474 12.6016C37.3001 12.6016 36.3125 12.8132 35.3849 13.2363C34.4572 13.6291 33.6492 14.1882 32.9609 14.9135C32.2727 15.6387 31.734 16.5151 31.345 17.5426C30.956 18.5398 30.7615 19.6429 30.7615 20.8516V21.3956C30.7615 22.6648 30.956 23.8132 31.345 24.8407C31.734 25.8379 32.2727 26.6992 32.9609 27.4244C33.6492 28.1497 34.4422 28.7088 35.34 29.1016C36.2676 29.4643 37.2701 29.6456 38.3474 29.6456Z" fill="#13192A"/>
<path d="M73.2385 28.9203H72.6999C72.3408 29.6154 71.8769 30.2198 71.3084 30.7335C70.7697 31.2473 70.1712 31.6703 69.5129 32.0027C68.8845 32.3352 68.2111 32.5769 67.493 32.728C66.7747 32.9093 66.0865 33 65.4281 33C63.9319 33 62.5404 32.7431 61.2536 32.2294C59.9668 31.7157 58.8297 30.9753 57.8422 30.0082C56.8846 29.0412 56.1215 27.8475 55.5529 26.4272C55.0143 24.9766 54.745 23.3297 54.745 21.4863V20.761C54.745 18.9478 55.0292 17.331 55.5978 15.9107C56.1664 14.4602 56.9295 13.2514 57.8871 12.2843C58.8447 11.2871 59.9668 10.5316 61.2536 10.0179C62.5404 9.50412 63.902 9.24725 65.3384 9.24725C66.8645 9.24725 68.286 9.59478 69.6027 10.2898C70.9493 10.9547 71.9817 11.9973 72.6999 13.4176H73.2385V0.634615H76.7397V32.3654H73.2385V28.9203ZM65.7872 29.6456C66.8346 29.6456 67.8072 29.4492 68.7049 29.0563C69.6027 28.6635 70.3807 28.1044 71.039 27.3791C71.7273 26.6538 72.266 25.7926 72.655 24.7953C73.044 23.7679 73.2385 22.6346 73.2385 21.3956V20.8516C73.2385 19.6429 73.044 18.5398 72.655 17.5426C72.266 16.5151 71.7273 15.6387 71.039 14.9135C70.3807 14.1882 69.5877 13.6291 68.66 13.2363C67.7623 12.8132 66.8047 12.6016 65.7872 12.6016C64.7399 12.6016 63.7523 12.7981 62.8247 13.1909C61.9269 13.5838 61.1339 14.1429 60.4456 14.8681C59.7873 15.5934 59.2636 16.4547 58.8746 17.4519C58.5155 18.4492 58.3359 19.5522 58.3359 20.761V21.4863C58.3359 22.7555 58.5155 23.8887 58.8746 24.886C59.2636 25.8832 59.7873 26.7445 60.4456 27.4698C61.1339 28.1648 61.9269 28.7088 62.8247 29.1016C63.7224 29.4643 64.7099 29.6456 65.7872 29.6456Z" fill="#13192A"/>
<path d="M86.0451 22.2115C86.1348 24.4478 86.8231 26.2459 88.1099 27.6058C89.3967 28.9657 91.1921 29.6456 93.4964 29.6456C94.5437 29.6456 95.4564 29.5247 96.2345 29.283C97.0125 29.0412 97.6709 28.7088 98.2095 28.2857C98.7781 27.8626 99.227 27.3791 99.5562 26.8352C99.9152 26.261 100.2 25.6566 100.409 25.022L103.731 25.9286C103.102 28.0137 101.935 29.7212 100.229 31.0508C98.5537 32.3503 96.2794 33 93.4066 33C91.8206 33 90.3543 32.728 89.0076 32.1841C87.6909 31.6099 86.5538 30.8091 85.5962 29.7816C84.6386 28.7541 83.8905 27.5302 83.3518 26.1099C82.8132 24.6896 82.5439 23.1181 82.5439 21.3956V20.3077C82.5439 18.7363 82.8132 17.2706 83.3518 15.9107C83.9204 14.5508 84.6985 13.3874 85.686 12.4203C86.6735 11.4231 87.8256 10.6525 89.1423 10.1085C90.4889 9.53434 91.9403 9.24725 93.4964 9.24725C95.3218 9.24725 96.8928 9.59478 98.2095 10.2898C99.5562 10.9547 100.648 11.7857 101.486 12.783C102.354 13.7802 102.983 14.8681 103.372 16.0467C103.791 17.2253 104 18.3132 104 19.3104V22.2115H86.0451ZM93.4964 12.6016C92.5088 12.6016 91.5812 12.7679 90.7134 13.1003C89.8755 13.4025 89.1273 13.8407 88.469 14.4148C87.8406 14.989 87.3169 15.669 86.8979 16.4547C86.5089 17.2102 86.2545 18.0412 86.1348 18.9478H100.499C100.439 17.9808 100.2 17.1044 99.7806 16.3187C99.3916 15.533 98.8679 14.8681 98.2095 14.3242C97.5811 13.7802 96.848 13.3571 96.0101 13.0549C95.2021 12.7527 94.3642 12.6016 93.4964 12.6016Z" fill="#13192A"/>
</svg>
