<svg width="52" height="65" viewBox="0 0 52 65" fill="none" xmlns="http://www.w3.org/2000/svg">
<path d="M23.299 63.9749C24.6658 65.3417 26.8819 65.3417 28.2487 63.9749L50.5226 41.701C51.8894 40.3342 51.8894 38.1181 50.5226 36.7513C49.1558 35.3844 46.9397 35.3844 45.5729 36.7513L25.7739 56.5503L5.97488 36.7513C4.60804 35.3844 2.39196 35.3844 1.02513 36.7513C-0.341706 38.1181 -0.341706 40.3342 1.02513 41.701L23.299 63.9749ZM29.2739 3.5C29.2739 1.56701 27.7069 8.4494e-08 25.7739 0C23.8409 -8.4494e-08 22.2739 1.56701 22.2739 3.5L25.7739 3.5L29.2739 3.5ZM25.7739 61.5L29.2739 61.5L29.2739 3.5L25.7739 3.5L22.2739 3.5L22.2739 61.5L25.7739 61.5Z" fill="#13192A"/>
</svg>
