<svg width="52" height="203" viewBox="0 0 52 203" fill="none" xmlns="http://www.w3.org/2000/svg">
<path d="M23.2989 201.975C24.6658 203.342 26.8818 203.342 28.2487 201.975L50.5225 179.701C51.8894 178.334 51.8894 176.118 50.5225 174.751C49.1557 173.384 46.9396 173.384 45.5728 174.751L25.7738 194.55L5.97481 174.751C4.60798 173.384 2.3919 173.384 1.02507 174.751C-0.341769 176.118 -0.341769 178.334 1.02507 179.701L23.2989 201.975ZM29.2738 3.5C29.2738 1.567 27.7068 -8.4494e-08 25.7738 0C23.8408 8.4494e-08 22.2738 1.567 22.2738 3.5L25.7738 3.5L29.2738 3.5ZM25.7738 199.5L29.2738 199.5L29.2738 3.5L25.7738 3.5L22.2738 3.5L22.2738 199.5L25.7738 199.5Z" fill="#13192A"/>
</svg>
