<svg width="52" height="113" viewBox="0 0 52 113" fill="none" xmlns="http://www.w3.org/2000/svg">
<path d="M28.2487 111.975C26.8819 113.342 24.6658 113.342 23.299 111.975L1.02513 89.701C-0.341708 88.3342 -0.341708 86.1181 1.02513 84.7513C2.39196 83.3844 4.60804 83.3844 5.97487 84.7513L25.7739 104.55L45.5729 84.7513C46.9397 83.3844 49.1558 83.3844 50.5226 84.7513C51.8894 86.1181 51.8894 88.3342 50.5226 89.701L28.2487 111.975ZM22.2739 3.5C22.2739 1.567 23.8409 1.87049e-07 25.7739 0C27.7069 -1.87049e-07 29.2739 1.567 29.2739 3.5L25.7739 3.5L22.2739 3.5ZM25.7739 109.5L22.2739 109.5L22.2739 3.5L25.7739 3.5L29.2739 3.5L29.2739 109.5L25.7739 109.5Z" fill="#13192A"/>
</svg>
