<svg width="52" height="201" viewBox="0 0 52 201" fill="none" xmlns="http://www.w3.org/2000/svg">
<path d="M28.2487 1.02513C26.8818 -0.341708 24.6658 -0.341709 23.2989 1.02513L1.02507 23.299C-0.341768 24.6658 -0.341768 26.8819 1.02507 28.2487C2.3919 29.6156 4.60798 29.6156 5.97481 28.2487L25.7738 8.44975L45.5728 28.2487C46.9396 29.6156 49.1557 29.6156 50.5225 28.2487C51.8894 26.8819 51.8894 24.6658 50.5225 23.299L28.2487 1.02513ZM22.2738 197.5C22.2738 199.433 23.8408 201 25.7738 201C27.7068 201 29.2738 199.433 29.2738 197.5L25.7738 197.5L22.2738 197.5ZM25.7738 3.5L22.2738 3.5L22.2738 197.5L25.7738 197.5L29.2738 197.5L29.2738 3.5L25.7738 3.5Z" fill="#13192A"/>
</svg>
