<svg width="41" height="52" viewBox="0 0 41 52" fill="none" xmlns="http://www.w3.org/2000/svg">
<path d="M3.5 22.2739C1.567 22.2739 0 23.8409 0 25.7739C0 27.7069 1.567 29.2739 3.5 29.2739V25.7739V22.2739ZM39.9749 28.2487C41.3417 26.8819 41.3417 24.6658 39.9749 23.299L17.701 1.02513C16.3342 -0.341707 14.1181 -0.341707 12.7513 1.02513C11.3844 2.39196 11.3844 4.60804 12.7513 5.97487L32.5503 25.7739L12.7513 45.5729C11.3844 46.9397 11.3844 49.1558 12.7513 50.5226C14.1181 51.8894 16.3342 51.8894 17.701 50.5226L39.9749 28.2487ZM3.5 25.7739V29.2739L37.5 29.2739V25.7739V22.2739L3.5 22.2739V25.7739Z" fill="#13192A"/>
</svg>
