<svg width="48" height="48" viewBox="0 0 48 48" fill="none" xmlns="http://www.w3.org/2000/svg">
<g clip-path="url(#clip0_85_218)">
<path d="M39.7642 8.87476C37.2931 5.56196 33.942 3.0091 30.092 1.50655C26.2419 0.00400436 22.0475 -0.387928 17.9857 0.375335C13.9239 1.1386 10.1579 3.02642 7.1159 5.82408C4.07392 8.62174 1.8781 12.2169 0.778217 16.2008C-0.105329 19.504 -0.203761 22.9682 0.490793 26.3163C1.18535 29.6644 2.65362 32.8035 4.77821 35.4828C5.53435 36.4078 5.96391 37.5566 6.00021 38.7508V38.9708C5.99914 41.3608 6.94605 43.6537 8.63325 45.3465C10.3204 47.0393 12.6102 47.9939 15.0002 48.0008H25.0002C26.8749 47.9986 28.7022 47.412 30.2279 46.3226C31.7535 45.2332 32.9016 43.6952 33.5122 41.9228C35.8833 41.6449 38.0986 40.5998 39.8208 38.9465C41.543 37.2933 42.6777 35.1225 43.0522 32.7648L43.3402 30.9948C44.6294 30.9294 45.8411 30.3592 46.7131 29.4074C47.5852 28.4556 48.0475 27.1988 48.0002 25.9088C48.0002 22.7108 42.1062 11.7648 39.7642 8.87476ZM40.7882 25.0008C40.076 25.0011 39.3871 25.2548 38.8448 25.7165C38.3025 26.1782 37.9421 26.8177 37.8282 27.5208L37.1302 31.8008C36.9442 32.9737 36.3452 34.0415 35.4412 34.8116C34.5372 35.5818 33.3877 36.0035 32.2002 36.0008H31.0002C30.6062 36.0008 30.2161 36.0784 29.8521 36.2291C29.4882 36.3799 29.1574 36.6009 28.8789 36.8794C28.6003 37.158 28.3793 37.4887 28.2285 37.8527C28.0778 38.2167 28.0002 38.6068 28.0002 39.0008C28.0002 39.7964 27.6841 40.5595 27.1215 41.1221C26.5589 41.6847 25.7958 42.0008 25.0002 42.0008H15.0002C14.201 41.9955 13.4365 41.6736 12.8741 41.1056C12.3118 40.5377 11.9975 39.77 12.0002 38.9708V38.7508C11.9746 36.2218 11.1013 33.7746 9.52021 31.8008C7.95964 29.857 6.87926 27.5728 6.36671 25.1334C5.85416 22.694 5.92388 20.1682 6.57021 17.7608C7.39337 14.8286 9.02994 12.1894 11.2905 10.1486C13.5511 8.10778 16.3434 6.74875 19.3442 6.22876C20.2298 6.07968 21.1261 6.00343 22.0242 6.00076C24.5518 6.00266 27.044 6.59601 29.3013 7.73336C31.5586 8.8707 33.5185 10.5205 35.0242 12.5508C37.6838 16.4485 39.9134 20.6229 41.6742 25.0008H40.7882ZM32.4502 16.1028C32.0594 15.4098 31.4095 14.9005 30.6432 14.6867C29.877 14.4729 29.0572 14.5722 28.3642 14.9628L26.9482 15.7628C26.3575 15.2846 25.7016 14.8933 25.0002 14.6008V13.0008C25.0002 12.2051 24.6841 11.442 24.1215 10.8794C23.5589 10.3168 22.7958 10.0008 22.0002 10.0008C21.2045 10.0008 20.4415 10.3168 19.8789 10.8794C19.3163 11.442 19.0002 12.2051 19.0002 13.0008V14.6008C18.2985 14.8951 17.6425 15.2885 17.0522 15.7688L15.6362 14.9688C15.2927 14.7752 14.9144 14.6512 14.5229 14.6038C14.1314 14.5564 13.7345 14.5866 13.3547 14.6927C12.9749 14.7987 12.6197 14.9785 12.3094 15.2219C11.9991 15.4652 11.7398 15.7672 11.5462 16.1108C11.3526 16.4543 11.2286 16.8326 11.1813 17.2241C11.1339 17.6155 11.1641 18.0125 11.2701 18.3923C11.4843 19.1593 11.9944 19.8098 12.6882 20.2008L14.1022 21.0008C14.0474 21.3316 14.0133 21.6656 14.0002 22.0008C14.0128 22.3399 14.0468 22.6779 14.1022 23.0128L12.6882 23.8128C11.9949 24.2037 11.4853 24.854 11.2716 25.6207C11.0578 26.3873 11.1573 27.2075 11.5482 27.9008C11.9391 28.594 12.5895 29.1036 13.3561 29.3174C14.1227 29.5312 14.9429 29.4317 15.6362 29.0408L17.0522 28.2408C17.643 28.7182 18.2989 29.1089 19.0002 29.4008V31.0008C19.0002 31.7964 19.3163 32.5595 19.8789 33.1221C20.4415 33.6847 21.2045 34.0008 22.0002 34.0008C22.7958 34.0008 23.5589 33.6847 24.1215 33.1221C24.6841 32.5595 25.0002 31.7964 25.0002 31.0008V29.4008C25.7019 29.1064 26.3579 28.7131 26.9482 28.2328L28.3642 29.0328C29.0575 29.4237 29.8776 29.5232 30.6443 29.3094C31.4109 29.0956 32.0612 28.586 32.4522 27.8928C32.8431 27.1995 32.9426 26.3793 32.7288 25.6127C32.515 24.846 32.0055 24.1957 31.3122 23.8048L29.8982 23.0048C29.9532 22.6726 29.9873 22.3372 30.0002 22.0008C29.9876 21.6616 29.9535 21.3236 29.8982 20.9888L31.3122 20.1888C32.0048 19.7977 32.5137 19.1476 32.7271 18.3814C32.9405 17.6151 32.8409 16.7956 32.4502 16.1028ZM24.0002 22.0008C24.0002 22.3963 23.8829 22.783 23.6631 23.1119C23.4434 23.4408 23.131 23.6971 22.7656 23.8485C22.4001 23.9999 21.998 24.0395 21.61 23.9623C21.222 23.8852 20.8657 23.6947 20.586 23.415C20.3063 23.1353 20.1158 22.7789 20.0386 22.3909C19.9615 22.003 20.0011 21.6008 20.1524 21.2354C20.3038 20.8699 20.5602 20.5576 20.8891 20.3378C21.2179 20.1181 21.6046 20.0008 22.0002 20.0008C22.5306 20.0008 23.0393 20.2115 23.4144 20.5865C23.7895 20.9616 24.0002 21.4703 24.0002 22.0008Z" fill="#13192A"/>
</g>
<defs>
<clipPath id="clip0_85_218">
<rect width="48" height="48" fill="white"/>
</clipPath>
</defs>
</svg>
