<svg width="48" height="48" viewBox="0 0 48 48" fill="none" xmlns="http://www.w3.org/2000/svg">
<g clip-path="url(#clip0_88_228)">
<path d="M24 0C19.2533 0 14.6131 1.40758 10.6663 4.04473C6.71954 6.68188 3.64341 10.4302 1.8269 14.8156C0.0103989 19.201 -0.464881 24.0266 0.461164 28.6822C1.38721 33.3377 3.67299 37.6141 7.02945 40.9706C10.3859 44.327 14.6623 46.6128 19.3178 47.5388C23.9734 48.4649 28.799 47.9896 33.1844 46.1731C37.5698 44.3566 41.3181 41.2805 43.9553 37.3337C46.5924 33.3869 48 28.7468 48 24C47.9931 17.6369 45.4624 11.5364 40.963 7.03704C36.4636 2.53766 30.3631 0.00688216 24 0V0ZM41.882 22H34.926C34.4725 16.7898 32.9117 11.7365 30.348 7.178C33.447 8.34999 36.1631 10.3534 38.1978 12.9682C40.2326 15.583 41.5073 18.708 41.882 22ZM19.37 28H28.63C27.8425 32.1895 26.2717 36.1928 24 39.8C21.728 36.193 20.1572 32.1896 19.37 28ZM19.106 22C19.6661 17.0876 21.34 12.3677 24 8.2C26.6604 12.3676 28.3342 17.0875 28.894 22H19.106ZM17.652 7.178C15.0883 11.7365 13.5275 16.7898 13.074 22H6.11801C6.4927 18.708 7.76744 15.583 9.80219 12.9682C11.8369 10.3534 14.553 8.34999 17.652 7.178ZM6.46401 28H13.282C13.955 32.5022 15.4354 36.8459 17.652 40.822C14.8763 39.7701 12.403 38.0495 10.4514 35.8129C8.49979 33.5763 7.13019 30.8927 6.46401 28ZM30.348 40.822C32.5655 36.8463 34.046 32.5024 34.718 28H41.536C40.8698 30.8927 39.5002 33.5763 37.5486 35.8129C35.597 38.0495 33.1237 39.7701 30.348 40.822Z" fill="#13192A"/>
</g>
<defs>
<clipPath id="clip0_88_228">
<rect width="48" height="48" fill="white"/>
</clipPath>
</defs>
</svg>
