<svg width="40" height="40" viewBox="0 0 40 40" fill="none" xmlns="http://www.w3.org/2000/svg">
<g clip-path="url(#clip0_77_139)">
<path d="M30.8333 0H9.16667C6.73633 0.00264695 4.40629 0.969268 2.68778 2.68778C0.969268 4.40629 0.00264695 6.73633 0 9.16667L0 22.5C0.00264695 24.9303 0.969268 27.2604 2.68778 28.9789C4.40629 30.6974 6.73633 31.664 9.16667 31.6667H17.5V35H13.3333C12.6703 35 12.0344 35.2634 11.5656 35.7322C11.0967 36.2011 10.8333 36.837 10.8333 37.5C10.8333 38.163 11.0967 38.7989 11.5656 39.2678C12.0344 39.7366 12.6703 40 13.3333 40H26.6667C27.3297 40 27.9656 39.7366 28.4344 39.2678C28.9033 38.7989 29.1667 38.163 29.1667 37.5C29.1667 36.837 28.9033 36.2011 28.4344 35.7322C27.9656 35.2634 27.3297 35 26.6667 35H22.5V31.6667H30.8333C33.2637 31.664 35.5937 30.6974 37.3122 28.9789C39.0307 27.2604 39.9974 24.9303 40 22.5V9.16667C39.9974 6.73633 39.0307 4.40629 37.3122 2.68778C35.5937 0.969268 33.2637 0.00264695 30.8333 0V0ZM9.16667 5H30.8333C31.9384 5 32.9982 5.43899 33.7796 6.22039C34.561 7.00179 35 8.0616 35 9.16667V21.6667H5V9.16667C5 8.0616 5.43899 7.00179 6.22039 6.22039C7.00179 5.43899 8.0616 5 9.16667 5Z" fill="#13192A"/>
</g>
<defs>
<clipPath id="clip0_77_139">
<rect width="40" height="40" fill="white"/>
</clipPath>
</defs>
</svg>
