<svg width="36" height="36" viewBox="0 0 36 36" fill="none" xmlns="http://www.w3.org/2000/svg">
<g clip-path="url(#clip0_77_131)">
<path d="M6.24 31.2131C4.58576 31.21 3.00021 30.5513 1.83063 29.3815C0.661045 28.2116 0.00277519 26.6259 0 24.9716L0 11.0216C0.0012309 9.86994 0.321403 8.74109 0.925016 7.76024C1.52863 6.77939 2.3921 5.98488 3.41968 5.4648C4.44726 4.94471 5.5988 4.71938 6.74663 4.81379C7.89445 4.9082 8.9937 5.31865 9.9225 5.99964L14.2905 9.20214C14.5824 8.25041 15.0977 7.38234 15.7936 6.67046C16.4894 5.95858 17.3455 5.42355 18.2903 5.11007C19.2352 4.7966 20.2413 4.71378 21.2247 4.86853C22.208 5.02329 23.1401 5.41112 23.943 5.99964L33.45 12.9716C34.2387 13.5508 34.8801 14.3074 35.3221 15.1804C35.7642 16.0534 35.9945 17.0181 35.9945 17.9966C35.9945 18.9752 35.7642 19.9399 35.3221 20.8129C34.8801 21.6859 34.2387 22.4425 33.45 23.0216L23.9445 29.9996C23.1415 30.5881 22.2093 30.9759 21.2258 31.1307C20.2424 31.2854 19.2362 31.2026 18.2912 30.8892C17.3463 30.5757 16.4901 30.0407 15.7941 29.3288C15.0981 28.617 14.5826 27.7489 14.2905 26.7971L9.9225 29.9996C8.85597 30.7868 7.56555 31.212 6.24 31.2131ZM16.272 20.3051C16.8687 20.3051 17.441 20.5422 17.863 20.9641C18.2849 21.3861 18.522 21.9584 18.522 22.5551V24.9716C18.5218 25.2924 18.6104 25.607 18.7782 25.8804C18.946 26.1539 19.1862 26.3755 19.4723 26.5206C19.7584 26.6657 20.0791 26.7288 20.3988 26.7026C20.7185 26.6765 21.0248 26.5623 21.2835 26.3726L30.7905 19.3991C31.0103 19.2379 31.189 19.0272 31.3122 18.7841C31.4355 18.541 31.4997 18.2722 31.4997 17.9996C31.4997 17.7271 31.4355 17.4583 31.3122 17.2152C31.189 16.972 31.0103 16.7613 30.7905 16.6001L21.282 9.62664C21.0233 9.43742 20.7172 9.32355 20.3977 9.29766C20.0782 9.27176 19.7578 9.33486 19.4719 9.47994C19.1861 9.62503 18.9461 9.84644 18.7784 10.1196C18.6107 10.3928 18.522 10.7071 18.522 11.0276V13.4441C18.5223 13.8602 18.4072 14.2682 18.1895 14.6229C17.9719 14.9775 17.6601 15.2648 17.289 15.4528C16.9178 15.6409 16.5018 15.7224 16.0871 15.6882C15.6724 15.654 15.2753 15.5055 14.94 15.2591L7.2615 9.62664C7.00263 9.43757 6.69648 9.32382 6.37696 9.29799C6.05743 9.27216 5.73699 9.33526 5.45111 9.48029C5.16523 9.62533 4.92507 9.84665 4.7572 10.1197C4.58933 10.3928 4.50031 10.7071 4.5 11.0276V24.9776C4.50031 25.2982 4.58933 25.6124 4.7572 25.8855C4.92507 26.1586 5.16523 26.38 5.45111 26.525C5.73699 26.67 6.05743 26.7331 6.37696 26.7073C6.69648 26.6815 7.00263 26.5677 7.2615 26.3786L14.94 20.7401C15.3267 20.4576 15.7931 20.3053 16.272 20.3051Z" fill="#13192A"/>
</g>
<defs>
<clipPath id="clip0_77_131">
<rect width="35.3333" height="35.3333" fill="white" transform="scale(1.01887)"/>
</clipPath>
</defs>
</svg>
