<svg width="48" height="48" viewBox="0 0 48 48" fill="none" xmlns="http://www.w3.org/2000/svg">
<g clip-path="url(#clip0_85_223)">
<path d="M42 30.0702V22.9982C41.9978 19.8093 41.149 16.6781 39.5403 13.9246C37.9317 11.1711 35.6209 8.89411 32.844 7.3262C32.4552 5.26507 31.3586 3.40448 29.7439 2.06585C28.1291 0.727223 26.0975 -0.00537109 24 -0.00537109C21.9025 -0.00537109 19.8709 0.727223 18.2561 2.06585C16.6413 3.40448 15.5448 5.26507 15.156 7.3262C12.3791 8.89411 10.0683 11.1711 8.45965 13.9246C6.851 16.6781 6.0022 19.8093 5.99998 22.9982V30.0702C4.33403 30.3107 2.8105 31.1434 1.70855 32.4157C0.606602 33.6881 3.36102e-05 35.315 -1.52588e-05 36.9982L-1.52588e-05 40.9982C-1.52588e-05 42.8547 0.737483 44.6352 2.05024 45.9479C3.36299 47.2607 5.14347 47.9982 6.99998 47.9982H11C12.8565 47.9982 14.637 47.2607 15.9497 45.9479C17.2625 44.6352 18 42.8547 18 40.9982V36.9982C17.9999 35.315 17.3934 33.6881 16.2914 32.4157C15.1895 31.1434 13.6659 30.3107 12 30.0702V22.9982C11.9997 21.2306 12.3907 19.4849 13.1448 17.8864C13.899 16.2878 14.9977 14.876 16.362 13.7522C17.1704 15.0493 18.2958 16.1191 19.6321 16.8609C20.9684 17.6026 22.4716 17.9918 24 17.9918C25.5284 17.9918 27.0316 17.6026 28.3679 16.8609C29.7042 16.1191 30.8296 15.0493 31.638 13.7522C33.0023 14.876 34.101 16.2878 34.8552 17.8864C35.6093 19.4849 36.0003 21.2306 36 22.9982V30.0702C34.334 30.3107 32.8105 31.1434 31.7085 32.4157C30.6066 33.6881 30 35.315 30 36.9982V40.9982C30 42.8547 30.7375 44.6352 32.0502 45.9479C33.363 47.2607 35.1435 47.9982 37 47.9982H41C42.8565 47.9982 44.637 47.2607 45.9497 45.9479C47.2625 44.6352 48 42.8547 48 40.9982V36.9982C47.9999 35.315 47.3934 33.6881 46.2914 32.4157C45.1895 31.1434 43.6659 30.3107 42 30.0702ZM12 40.9982C12 41.2634 11.8946 41.5178 11.7071 41.7053C11.5196 41.8928 11.2652 41.9982 11 41.9982H6.99998C6.73477 41.9982 6.48041 41.8928 6.29288 41.7053C6.10534 41.5178 5.99998 41.2634 5.99998 40.9982V36.9982C5.99998 36.733 6.10534 36.4786 6.29288 36.2911C6.48041 36.1036 6.73477 35.9982 6.99998 35.9982H11C11.2652 35.9982 11.5196 36.1036 11.7071 36.2911C11.8946 36.4786 12 36.733 12 36.9982V40.9982ZM24 11.9982C23.4066 11.9982 22.8266 11.8223 22.3333 11.4926C21.8399 11.163 21.4554 10.6944 21.2283 10.1462C21.0013 9.59807 20.9419 8.99487 21.0576 8.41293C21.1734 7.83098 21.4591 7.29644 21.8787 6.87688C22.2982 6.45732 22.8328 6.1716 23.4147 6.05584C23.9967 5.94009 24.5999 5.9995 25.148 6.22656C25.6962 6.45362 26.1647 6.83814 26.4944 7.33149C26.824 7.82483 27 8.40485 27 8.9982C27 9.79385 26.6839 10.5569 26.1213 11.1195C25.5587 11.6821 24.7956 11.9982 24 11.9982ZM42 40.9982C42 41.2634 41.8946 41.5178 41.7071 41.7053C41.5196 41.8928 41.2652 41.9982 41 41.9982H37C36.7348 41.9982 36.4804 41.8928 36.2929 41.7053C36.1053 41.5178 36 41.2634 36 40.9982V36.9982C36 36.733 36.1053 36.4786 36.2929 36.2911C36.4804 36.1036 36.7348 35.9982 37 35.9982H41C41.2652 35.9982 41.5196 36.1036 41.7071 36.2911C41.8946 36.4786 42 36.733 42 36.9982V40.9982Z" fill="#13192A"/>
</g>
<defs>
<clipPath id="clip0_85_223">
<rect width="48" height="48" fill="white"/>
</clipPath>
</defs>
</svg>
