<svg width="24" height="24" viewBox="0 0 24 24" fill="none" xmlns="http://www.w3.org/2000/svg">
<g clip-path="url(#clip0_92_144)">
<path d="M14.9999 3C14.4694 3 13.9607 2.78929 13.5857 2.41421C13.2106 2.03914 12.9999 1.53043 12.9999 1C12.9999 0.734784 12.8945 0.48043 12.707 0.292893C12.5194 0.105357 12.2651 0 11.9999 0C11.7347 0 11.4803 0.105357 11.2928 0.292893C11.1052 0.48043 10.9999 0.734784 10.9999 1C10.9999 1.53043 10.7892 2.03914 10.4141 2.41421C10.039 2.78929 9.53031 3 8.99988 3C8.73466 3 8.48031 3.10536 8.29277 3.29289C8.10523 3.48043 7.99988 3.73478 7.99988 4C7.99988 4.26522 8.10523 4.51957 8.29277 4.70711C8.48031 4.89464 8.73466 5 8.99988 5C9.53031 5 10.039 5.21071 10.4141 5.58579C10.7892 5.96086 10.9999 6.46957 10.9999 7C10.9999 7.26522 11.1052 7.51957 11.2928 7.70711C11.4803 7.89464 11.7347 8 11.9999 8C12.2651 8 12.5194 7.89464 12.707 7.70711C12.8945 7.51957 12.9999 7.26522 12.9999 7C12.9999 6.46957 13.2106 5.96086 13.5857 5.58579C13.9607 5.21071 14.4694 5 14.9999 5C15.2651 5 15.5194 4.89464 15.707 4.70711C15.8945 4.51957 15.9999 4.26522 15.9999 4C15.9999 3.73478 15.8945 3.48043 15.707 3.29289C15.5194 3.10536 15.2651 3 14.9999 3Z" fill="#5D7DCD"/>
<path d="M7 18.9998C6.46957 18.9998 5.96086 18.789 5.58579 18.414C5.21071 18.0389 5 17.5302 5 16.9998C5 16.7345 4.89464 16.4802 4.70711 16.2926C4.51957 16.1051 4.26522 15.9998 4 15.9998C3.73478 15.9998 3.48043 16.1051 3.29289 16.2926C3.10536 16.4802 3 16.7345 3 16.9998C3 17.5302 2.78929 18.0389 2.41421 18.414C2.03914 18.789 1.53043 18.9998 1 18.9998C0.734784 18.9998 0.48043 19.1051 0.292893 19.2926C0.105357 19.4802 0 19.7345 0 19.9997C0 20.265 0.105357 20.5193 0.292893 20.7069C0.48043 20.8944 0.734784 20.9997 1 20.9997C1.53043 20.9997 2.03914 21.2105 2.41421 21.5855C2.78929 21.9606 3 22.4693 3 22.9997C3 23.265 3.10536 23.5193 3.29289 23.7068C3.48043 23.8944 3.73478 23.9997 4 23.9997C4.26522 23.9997 4.51957 23.8944 4.70711 23.7068C4.89464 23.5193 5 23.265 5 22.9997C5 22.4693 5.21071 21.9606 5.58579 21.5855C5.96086 21.2105 6.46957 20.9997 7 20.9997C7.26522 20.9997 7.51957 20.8944 7.70711 20.7069C7.89464 20.5193 8 20.265 8 19.9997C8 19.7345 7.89464 19.4802 7.70711 19.2926C7.51957 19.1051 7.26522 18.9998 7 18.9998Z" fill="#5D7DCD"/>
<path d="M23.0001 18.9998C22.4697 18.9998 21.961 18.789 21.5859 18.414C21.2108 18.0389 21.0001 17.5302 21.0001 16.9998C21.0001 16.7345 20.8948 16.4802 20.7072 16.2926C20.5197 16.1051 20.2653 15.9998 20.0001 15.9998C19.7349 15.9998 19.4805 16.1051 19.293 16.2926C19.1055 16.4802 19.0001 16.7345 19.0001 16.9998C19.0001 17.5302 18.7894 18.0389 18.4143 18.414C18.0393 18.789 17.5306 18.9998 17.0001 18.9998C16.7349 18.9998 16.4805 19.1051 16.293 19.2926C16.1055 19.4802 16.0001 19.7345 16.0001 19.9997C16.0001 20.265 16.1055 20.5193 16.293 20.7069C16.4805 20.8944 16.7349 20.9997 17.0001 20.9997C17.5306 20.9997 18.0393 21.2105 18.4143 21.5855C18.7894 21.9606 19.0001 22.4693 19.0001 22.9997C19.0001 23.265 19.1055 23.5193 19.293 23.7068C19.4805 23.8944 19.7349 23.9997 20.0001 23.9997C20.2653 23.9997 20.5197 23.8944 20.7072 23.7068C20.8948 23.5193 21.0001 23.265 21.0001 22.9997C21.0001 22.4693 21.2108 21.9606 21.5859 21.5855C21.961 21.2105 22.4697 20.9997 23.0001 20.9997C23.2653 20.9997 23.5197 20.8944 23.7072 20.7069C23.8948 20.5193 24.0001 20.265 24.0001 19.9997C24.0001 19.7345 23.8948 19.4802 23.7072 19.2926C23.5197 19.1051 23.2653 18.9998 23.0001 18.9998Z" fill="#5D7DCD"/>
</g>
<defs>
<clipPath id="clip0_92_144">
<rect width="24" height="24" fill="white"/>
</clipPath>
</defs>
</svg>
