<svg width="31" height="30" viewBox="0 0 31 30" fill="none" xmlns="http://www.w3.org/2000/svg">
<path d="M23.3453 0H6.9405C5.10038 0.00198522 3.3362 0.726954 2.03504 2.01584C0.733877 3.30473 0.00200413 5.05226 0 6.87502L0 16.8751C0.00200413 18.6978 0.733877 20.4454 2.03504 21.7342C3.3362 23.0231 5.10038 23.7481 6.9405 23.7501H13.25V26.2501H10.0953C9.59325 26.2501 9.1118 26.4476 8.75681 26.7993C8.40183 27.1509 8.20241 27.6278 8.20241 28.1251C8.20241 28.6224 8.40183 29.0993 8.75681 29.4509C9.1118 29.8026 9.59325 30.0001 10.0953 30.0001H20.1905C20.6926 30.0001 21.174 29.8026 21.529 29.4509C21.884 29.0993 22.0834 28.6224 22.0834 28.1251C22.0834 27.6278 21.884 27.1509 21.529 26.7993C21.174 26.4476 20.6926 26.2501 20.1905 26.2501H17.0358V23.7501H23.3453C25.1854 23.7481 26.9496 23.0231 28.2508 21.7342C29.5519 20.4454 30.2838 18.6978 30.2858 16.8751V6.87502C30.2838 5.05226 29.5519 3.30473 28.2508 2.01584C26.9496 0.726954 25.1854 0.00198522 23.3453 0V0ZM6.9405 3.75001H23.3453C24.182 3.75001 24.9844 4.07925 25.5761 4.66531C26.1677 5.25136 26.5001 6.04622 26.5001 6.87502V16.2501H3.78573V6.87502C3.78573 6.04622 4.1181 5.25136 4.70974 4.66531C5.30137 4.07925 6.1038 3.75001 6.9405 3.75001Z" fill="#13192A"/>
</svg>
