<svg width="20" height="24" viewBox="0 0 20 24" fill="none" xmlns="http://www.w3.org/2000/svg">
<path d="M18.508 9.00001C18.8352 9.00001 19.149 8.84198 19.3804 8.56067C19.6118 8.27937 19.7418 7.89784 19.7418 7.50002C19.7418 7.1022 19.6118 6.72067 19.3804 6.43936C19.149 6.15806 18.8352 6.00003 18.508 6.00003H15.5237L16.0279 1.71205C16.0508 1.51704 16.0419 1.31845 16.0017 1.12763C15.9614 0.936807 15.8907 0.757487 15.7934 0.599906C15.6962 0.442326 15.5744 0.309572 15.4349 0.209223C15.2955 0.108874 15.1412 0.0428964 14.9808 0.0150563C14.8203 -0.0127838 14.657 -0.00194082 14.5 0.0469661C14.3431 0.0958731 14.1956 0.181886 14.0659 0.300095C13.9363 0.418303 13.8271 0.566392 13.7446 0.735905C13.662 0.905419 13.6078 1.09304 13.5848 1.28805L13.0313 6.00003H8.12047L8.62471 1.71205C8.64761 1.51704 8.6387 1.31845 8.59847 1.12763C8.55824 0.936807 8.48748 0.757487 8.39025 0.599906C8.29301 0.442326 8.1712 0.309572 8.03176 0.209223C7.89232 0.108874 7.73799 0.0428964 7.57757 0.0150563C7.41716 -0.0127838 7.25381 -0.00194082 7.09684 0.0469661C6.93988 0.0958731 6.79237 0.181886 6.66275 0.300095C6.53313 0.418303 6.42393 0.566392 6.34138 0.735905C6.25883 0.905419 6.20456 1.09304 6.18166 1.28805L5.62807 6.00003H2.05644C1.7292 6.00003 1.41536 6.15806 1.18397 6.43936C0.952573 6.72067 0.822576 7.1022 0.822576 7.50002C0.822576 7.89784 0.952573 8.27937 1.18397 8.56067C1.41536 8.84198 1.7292 9.00001 2.05644 9.00001H5.27518L4.57023 15H1.23386C0.906623 15 0.592785 15.158 0.361391 15.4393C0.129996 15.7206 0 16.1022 0 16.5C0 16.8978 0.129996 17.2793 0.361391 17.5606C0.592785 17.8419 0.906623 18 1.23386 18H4.21817L3.71393 22.2879C3.69103 22.483 3.69995 22.6815 3.74018 22.8724C3.78041 23.0632 3.85116 23.2425 3.9484 23.4001C4.14478 23.7183 4.4371 23.9287 4.76107 23.9849C5.08504 24.0412 5.41411 23.9386 5.6759 23.6999C5.80552 23.5817 5.91472 23.4336 5.99727 23.2641C6.07981 23.0946 6.13408 22.907 6.15698 22.7119L6.71058 18H11.6214L11.1171 22.2879C11.0709 22.6818 11.1552 23.0818 11.3516 23.4001C11.548 23.7183 11.8403 23.9287 12.1643 23.9849C12.4882 24.0412 12.8173 23.9386 13.0791 23.6999C13.3409 23.4612 13.5139 23.1058 13.5602 22.7119L14.1138 18H17.6854C18.0126 18 18.3265 17.8419 18.5579 17.5606C18.7893 17.2793 18.9193 16.8978 18.9193 16.5C18.9193 16.1022 18.7893 15.7206 18.5579 15.4393C18.3265 15.158 18.0126 15 17.6854 15H14.4667L15.1716 9.00001H18.508ZM11.9734 15H7.06346L7.76841 9.00001H12.6784L11.9734 15Z" fill="#13192A"/>
</svg>
