<svg width="138" height="33" viewBox="0 0 138 33" fill="none" xmlns="http://www.w3.org/2000/svg">
<path d="M52.8753 21.1681C52.8753 23.0784 52.5509 24.7731 51.9021 26.2521C51.2533 27.7003 50.3728 28.9328 49.2607 29.9496C48.1485 30.9356 46.8664 31.6905 45.4143 32.2143C43.9932 32.7381 42.4948 33 40.9192 33C39.3436 33 37.8298 32.7381 36.3778 32.2143C34.9567 31.6905 33.69 30.9356 32.5778 29.9496C31.4657 28.9328 30.5852 27.7003 29.9364 26.2521C29.2876 24.7731 28.9632 23.0784 28.9632 21.1681V20.6134C28.9632 18.7339 29.2876 17.07 29.9364 15.6218C30.5852 14.1429 31.4657 12.895 32.5778 11.8782C33.69 10.8613 34.9567 10.091 36.3778 9.56723C37.8298 9.04342 39.3436 8.78151 40.9192 8.78151C42.4948 8.78151 43.9932 9.04342 45.4143 9.56723C46.8664 10.091 48.1485 10.8613 49.2607 11.8782C50.3728 12.895 51.2533 14.1429 51.9021 15.6218C52.5509 17.07 52.8753 18.7339 52.8753 20.6134V21.1681ZM40.9192 27.4538C41.7534 27.4538 42.5412 27.3151 43.2826 27.0378C44.0241 26.7605 44.6729 26.3599 45.229 25.8361C45.7851 25.3123 46.2176 24.6807 46.5265 23.9412C46.8664 23.1709 47.0363 22.3081 47.0363 21.3529V20.4286C47.0363 19.4734 46.8664 18.6261 46.5265 17.8866C46.2176 17.1162 45.7851 16.4692 45.229 15.9454C44.6729 15.4216 44.0241 15.021 43.2826 14.7437C42.5412 14.4664 41.7534 14.3277 40.9192 14.3277C40.0851 14.3277 39.2973 14.4664 38.5558 14.7437C37.8144 15.021 37.1656 15.4216 36.6095 15.9454C36.0534 16.4692 35.6055 17.1162 35.2656 17.8866C34.9567 18.6261 34.8022 19.4734 34.8022 20.4286V21.3529C34.8022 22.3081 34.9567 23.1709 35.2656 23.9412C35.6055 24.6807 36.0534 25.3123 36.6095 25.8361C37.1656 26.3599 37.8144 26.7605 38.5558 27.0378C39.2973 27.3151 40.0851 27.4538 40.9192 27.4538Z" fill="#F9DF74"/>
<path d="M81.2502 21.1681C81.2502 23.0784 80.9258 24.7731 80.277 26.2521C79.6282 27.7003 78.7478 28.9328 77.6356 29.9496C76.5234 30.9356 75.2413 31.6905 73.7893 32.2143C72.3681 32.7381 70.8698 33 69.2942 33C67.7186 33 66.2048 32.7381 64.7527 32.2143C63.3316 31.6905 62.0649 30.9356 60.9528 29.9496C59.8406 28.9328 58.9601 27.7003 58.3113 26.2521C57.6625 24.7731 57.3381 23.0784 57.3381 21.1681V20.6134C57.3381 18.7339 57.6625 17.07 58.3113 15.6218C58.9601 14.1429 59.8406 12.895 60.9528 11.8782C62.0649 10.8613 63.3316 10.091 64.7527 9.56723C66.2048 9.04342 67.7186 8.78151 69.2942 8.78151C70.8698 8.78151 72.3681 9.04342 73.7893 9.56723C75.2413 10.091 76.5234 10.8613 77.6356 11.8782C78.7478 12.895 79.6282 14.1429 80.277 15.6218C80.9258 17.07 81.2502 18.7339 81.2502 20.6134V21.1681ZM69.2942 27.4538C70.1283 27.4538 70.9161 27.3151 71.6576 27.0378C72.399 26.7605 73.0478 26.3599 73.6039 25.8361C74.16 25.3123 74.5925 24.6807 74.9014 23.9412C75.2413 23.1709 75.4112 22.3081 75.4112 21.3529V20.4286C75.4112 19.4734 75.2413 18.6261 74.9014 17.8866C74.5925 17.1162 74.16 16.4692 73.6039 15.9454C73.0478 15.4216 72.399 15.021 71.6576 14.7437C70.9161 14.4664 70.1283 14.3277 69.2942 14.3277C68.46 14.3277 67.6722 14.4664 66.9308 14.7437C66.1893 15.021 65.5405 15.4216 64.9844 15.9454C64.4283 16.4692 63.9804 17.1162 63.6405 17.8866C63.3316 18.6261 63.1771 19.4734 63.1771 20.4286V21.3529C63.1771 22.3081 63.3316 23.1709 63.6405 23.9412C63.9804 24.6807 64.4283 25.3123 64.9844 25.8361C65.5405 26.3599 66.1893 26.7605 66.9308 27.0378C67.6722 27.3151 68.46 27.4538 69.2942 27.4538Z" fill="#F9DF74"/>
<path d="M103.601 29.5342C103.601 29.2531 103.372 29.0252 103.09 29.0252C102.893 29.0252 102.714 29.1397 102.623 29.3146C102.403 29.7368 102.142 30.1487 101.84 30.5504C101.5 31.0126 101.037 31.4286 100.45 31.7983C99.8934 32.1681 99.2138 32.4608 98.4105 32.6765C97.6382 32.8922 96.6959 33 95.5837 33C94.1626 33 92.8341 32.7535 91.5984 32.2605C90.3935 31.7367 89.3277 30.9818 88.4008 29.9958C87.5049 28.979 86.7943 27.7465 86.2691 26.2983C85.7748 24.8501 85.5277 23.1863 85.5277 21.3067V20.4748C85.5277 18.6261 85.7903 16.9776 86.3155 15.5294C86.8716 14.0812 87.613 12.8641 88.5399 11.8782C89.4976 10.8613 90.5943 10.091 91.8301 9.56723C93.0967 9.04342 94.4252 8.78151 95.8154 8.78151C97.6691 8.78151 99.1366 9.13585 100.218 9.84454C101.216 10.4705 102.017 11.3461 102.621 12.4713C102.713 12.6439 102.891 12.7563 103.087 12.7563C103.371 12.7563 103.601 12.5271 103.601 12.2443V2.91176C103.601 1.30364 104.908 0 106.52 0C108.133 0 109.44 1.30364 109.44 2.91176V29.4412C109.44 31.0493 108.133 32.3529 106.52 32.3529H105.269C104.348 32.3529 103.601 31.608 103.601 30.6891V29.5342ZM97.4837 27.4538C99.3065 27.4538 100.774 26.8838 101.886 25.7437C103.029 24.5728 103.601 23.0476 103.601 21.1681V20.6134C103.601 18.7339 103.029 17.2241 101.886 16.084C100.774 14.9132 99.3065 14.3277 97.4837 14.3277C95.661 14.3277 94.178 14.8978 93.035 16.0378C91.9228 17.1471 91.3667 18.6723 91.3667 20.6134V21.1681C91.3667 23.1092 91.9228 24.6499 93.035 25.7899C94.178 26.8992 95.661 27.4538 97.4837 27.4538Z" fill="#F9DF74"/>
<path d="M138 21.1681C138 23.0784 137.676 24.7731 137.027 26.2521C136.378 27.7003 135.498 28.9328 134.385 29.9496C133.273 30.9356 131.991 31.6905 130.539 32.2143C129.118 32.7381 127.62 33 126.044 33C124.468 33 122.955 32.7381 121.503 32.2143C120.081 31.6905 118.815 30.9356 117.703 29.9496C116.59 28.9328 115.71 27.7003 115.061 26.2521C114.412 24.7731 114.088 23.0784 114.088 21.1681V20.6134C114.088 18.7339 114.412 17.07 115.061 15.6218C115.71 14.1429 116.59 12.895 117.703 11.8782C118.815 10.8613 120.081 10.091 121.503 9.56723C122.955 9.04342 124.468 8.78151 126.044 8.78151C127.62 8.78151 129.118 9.04342 130.539 9.56723C131.991 10.091 133.273 10.8613 134.385 11.8782C135.498 12.895 136.378 14.1429 137.027 15.6218C137.676 17.07 138 18.7339 138 20.6134V21.1681ZM126.044 27.4538C126.878 27.4538 127.666 27.3151 128.407 27.0378C129.149 26.7605 129.798 26.3599 130.354 25.8361C130.91 25.3123 131.342 24.6807 131.651 23.9412C131.991 23.1709 132.161 22.3081 132.161 21.3529V20.4286C132.161 19.4734 131.991 18.6261 131.651 17.8866C131.342 17.1162 130.91 16.4692 130.354 15.9454C129.798 15.4216 129.149 15.021 128.407 14.7437C127.666 14.4664 126.878 14.3277 126.044 14.3277C125.21 14.3277 124.422 14.4664 123.681 14.7437C122.939 15.021 122.29 15.4216 121.734 15.9454C121.178 16.4692 120.73 17.1162 120.39 17.8866C120.081 18.6261 119.927 19.4734 119.927 20.4286V21.3529C119.927 22.3081 120.081 23.1709 120.39 23.9412C120.73 24.6807 121.178 25.3123 121.734 25.8361C122.29 26.3599 122.939 26.7605 123.681 27.0378C124.422 27.3151 125.21 27.4538 126.044 27.4538Z" fill="#F9DF74"/>
<path d="M2.47909 31.7752C1.37168 31.7752 0.473944 30.913 0.473944 29.8494V27.0736C0.473944 26.01 1.37168 25.1478 2.47909 25.1478H16.0995C17.2069 25.1478 18.1047 24.2856 18.1047 23.222V20.9683C18.1047 19.9688 17.3085 19.1354 16.2716 19.0496L1.83304 17.855C0.796182 17.7692 0 16.9358 0 15.9363V6.06484C0 5.55317 0.212014 5.06254 0.589246 4.70124L4.91079 0.562173C5.28667 0.202167 5.79585 0 6.32669 0H23.5878C24.6952 0 25.593 0.862197 25.593 1.92577V4.70163C25.593 5.7652 24.6952 6.6274 23.5878 6.6274H9.9674C8.85999 6.6274 7.96226 7.4896 7.96226 8.55317V10.353C7.96226 11.3525 8.75844 12.1858 9.79529 12.2716L24.2339 13.4663C25.2707 13.5521 26.0669 14.3854 26.0669 15.3849V25.7104C26.0669 26.222 25.8549 26.7127 25.4777 27.074L21.1561 31.213C20.7802 31.573 20.2711 31.7752 19.7402 31.7752H2.47909Z" fill="#F9DF74"/>
</svg>
